<svg xmlns="http://www.w3.org/2000/svg"  viewBox="0 0 48 48" width="48px" height="48px" baseProfile="basic"><linearGradient id="hBiCMDa6Rlgh4GC6iv7p_a" x1="4.285" x2="22.79" y1="3.285" y2="21.79" gradientUnits="userSpaceOnUse"><stop offset="0" stop-color="#262626" stop-opacity="0"/><stop offset="1" stop-color="#262626" stop-opacity=".8"/></linearGradient><circle cx="12" cy="11" r="7" fill="url(#hBiCMDa6Rlgh4GC6iv7p_a)"/><linearGradient id="hBiCMDa6Rlgh4GC6iv7p_b" x1="28.285" x2="46.79" y1="16.285" y2="34.79" gradientUnits="userSpaceOnUse"><stop offset="0" stop-color="#262626" stop-opacity="0"/><stop offset="1" stop-color="#262626" stop-opacity=".8"/></linearGradient><circle cx="36" cy="24" r="7" fill="url(#hBiCMDa6Rlgh4GC6iv7p_b)"/><linearGradient id="hBiCMDa6Rlgh4GC6iv7p_c" x1="4.285" x2="22.79" y1="29.285" y2="47.79" gradientUnits="userSpaceOnUse"><stop offset="0" stop-color="#262626" stop-opacity="0"/><stop offset="1" stop-color="#262626" stop-opacity=".8"/></linearGradient><circle cx="12" cy="37" r="7" fill="url(#hBiCMDa6Rlgh4GC6iv7p_c)"/><linearGradient id="hBiCMDa6Rlgh4GC6iv7p_d" x1="39.78" x2="-.797" y1="19.633" y2="15.601" gradientUnits="userSpaceOnUse"><stop offset="0" stop-color="#262626" stop-opacity=".8"/><stop offset="1" stop-color="#262626" stop-opacity="0"/></linearGradient><path fill="url(#hBiCMDa6Rlgh4GC6iv7p_d)" d="M18.763,12.78l11.801,6.813c-0.844,1.04-1.396,2.326-1.53,3.735l-12.355-7.133 C17.676,15.297,18.411,14.118,18.763,12.78z"/><linearGradient id="hBiCMDa6Rlgh4GC6iv7p_e" x1="54.245" x2="5.654" y1="18.9" y2="36.586" gradientUnits="userSpaceOnUse"><stop offset="0" stop-color="#262626" stop-opacity="0"/><stop offset="1" stop-color="#262626" stop-opacity=".8"/></linearGradient><path fill="url(#hBiCMDa6Rlgh4GC6iv7p_e)" d="M29.034,24.671l-12.355,7.133c0.997,0.899,1.732,2.078,2.084,3.416l11.801-6.813 C29.72,27.366,29.168,26.08,29.034,24.671z"/></svg>